# OBJ written from C:\Users\Joe\Desktop\Tabletop Simulator\merchant_of_venus\assets\_models\cylinder_beveled.obj
mtllib cylinder_beveled.mtl
# Units	inches

g cylinder_beveled
v -0.220425 -0.5 -0.262692
v -0.296978 -0.5 -0.17146
v -0.337711 -0.5 -0.0595475
v -0.337711 -0.5 0.0595475
v -0.296978 -0.5 0.17146
v -0.220425 -0.5 0.262692
v -0.117286 -0.5 0.32224
v 0 -0.5 0.342921
v 0.117286 -0.5 0.32224
v 0.220425 -0.5 0.262692
v 0.296978 -0.5 0.17146
v 0.337711 -0.5 0.0595475
v 0.337711 -0.5 -0.0595475
v 0.296978 -0.5 -0.17146
v 0.220425 -0.5 -0.262692
v 0.117286 -0.5 -0.32224
v 0 -0.5 -0.342921
v -0.117286 -0.5 -0.32224
v -0.156758 -0.5 -0.206831
v -0.177761 -0.5 -0.0727671
v -0.177761 -0.5 0.0727671
v -0.156758 -0.5 0.206831
v 0 -0.5 -0.219116
v 0 -0.5 -0.0773582
v 0 -0.5 0.0773582
v 0 -0.5 0.219116
v 0.156758 -0.5 -0.206831
v 0.177761 -0.5 -0.0727671
v 0.177761 -0.5 0.0727671
v 0.156758 -0.5 0.206831
v -0.220425 0.5 -0.262692
v -0.296978 0.5 -0.17146
v -0.337711 0.5 -0.0595475
v -0.337711 0.5 0.0595475
v -0.296978 0.5 0.17146
v -0.220425 0.5 0.262692
v -0.117286 0.5 0.32224
v 0 0.5 0.342921
v 0.117286 0.5 0.32224
v 0.220425 0.5 0.262692
v 0.296978 0.5 0.17146
v 0.337711 0.5 0.0595475
v 0.337711 0.5 -0.0595475
v 0.296978 0.5 -0.17146
v 0.220425 0.5 -0.262692
v 0.117286 0.5 -0.32224
v 0 0.5 -0.342921
v -0.117286 0.5 -0.32224
v -0.156758 0.5 -0.206831
v -0.177761 0.5 -0.0727671
v -0.177761 0.5 0.0727671
v -0.156758 0.5 0.206831
v 0 0.5 -0.219116
v 0 0.5 -0.0773582
v 0 0.5 0.0773582
v 0 0.5 0.219116
v 0.156758 0.5 -0.206831
v 0.177761 0.5 -0.0727671
v 0.177761 0.5 0.0727671
v 0.156758 0.5 0.206831
v 0 -0.5 -0.475
v 0 -0.475 -0.5
v -0.16246 -0.5 -0.446354
v -0.17101 -0.475 -0.469847
v -0.321394 -0.475 -0.383022
v -0.305324 -0.5 -0.363871
v -0.411362 -0.5 -0.2375
v -0.433013 -0.475 -0.25
v -0.467784 -0.5 -0.0824829
v -0.492404 -0.475 -0.0868241
v -0.467784 -0.5 0.0824829
v -0.492404 -0.475 0.0868241
v -0.411362 -0.5 0.2375
v -0.433013 -0.475 0.25
v -0.305324 -0.5 0.363871
v -0.321394 -0.475 0.383022
v -0.16246 -0.5 0.446354
v -0.17101 -0.475 0.469847
v 0 -0.5 0.475
v 0 -0.475 0.5
v 0.16246 -0.5 0.446354
v 0.17101 -0.475 0.469847
v 0.305324 -0.5 0.363871
v 0.321394 -0.475 0.383022
v 0.411362 -0.5 0.2375
v 0.433013 -0.475 0.25
v 0.467784 -0.5 0.0824829
v 0.492404 -0.475 0.0868241
v 0.467784 -0.5 -0.0824829
v 0.492404 -0.475 -0.0868241
v 0.411362 -0.5 -0.2375
v 0.433013 -0.475 -0.25
v 0.305324 -0.5 -0.363871
v 0.321394 -0.475 -0.383022
v 0.16246 -0.5 -0.446354
v 0.17101 -0.475 -0.469847
v 0 0.5 -0.475
v 0 0.475 -0.5
v -0.17101 0.475 -0.469847
v -0.16246 0.5 -0.446354
v -0.321394 0.475 -0.383022
v -0.305324 0.5 -0.363871
v -0.433013 0.475 -0.25
v -0.411362 0.5 -0.2375
v -0.492404 0.475 -0.0868241
v -0.467784 0.5 -0.0824829
v -0.492404 0.475 0.0868241
v -0.467784 0.5 0.0824829
v -0.433013 0.475 0.25
v -0.411362 0.5 0.2375
v -0.321394 0.475 0.383022
v -0.305324 0.5 0.363871
v -0.17101 0.475 0.469847
v -0.16246 0.5 0.446354
v 0 0.475 0.5
v 0 0.5 0.475
v 0.17101 0.475 0.469847
v 0.16246 0.5 0.446354
v 0.321394 0.475 0.383022
v 0.305324 0.5 0.363871
v 0.433013 0.475 0.25
v 0.411362 0.5 0.2375
v 0.492404 0.475 0.0868241
v 0.467784 0.5 0.0824829
v 0.492404 0.475 -0.0868241
v 0.467784 0.5 -0.0824829
v 0.433013 0.475 -0.25
v 0.411362 0.5 -0.2375
v 0.321394 0.475 -0.383022
v 0.305324 0.5 -0.363871
v 0.17101 0.475 -0.469847
v 0.16246 0.5 -0.446354
vn 0 1 0
vn 0 -1 0
vn 0.34202 0 -0.939693
vn 0 0 -1
vn 0.642788 0 -0.766044
vn 0.866025 0 -0.5
vn 0.984808 0 -0.173648
vn 0.984808 0 0.173648
vn 0.866025 0 0.5
vn 0.642788 0 0.766044
vn 0.34202 0 0.939693
vn 0 0 1
vn -0.34202 0 0.939693
vn -0.642788 0 0.766044
vn -0.866025 0 0.5
vn -0.984808 0 0.173648
vn -0.984808 0 -0.173648
vn -0.866025 0 -0.5
vn -0.642788 0 -0.766044
vn -0.34202 0 -0.939693
vn -0.454519 -0.707107 -0.541675
vn -0.612372 -0.707107 -0.353553
vn -0.696364 -0.707107 -0.122788
vn -0.696364 -0.707107 0.122788
vn -0.612372 -0.707107 0.353553
vn -0.454519 -0.707107 0.541675
vn -0.241845 -0.707107 0.664463
vn 1.50165e-008 -0.707107 0.707107
vn 0.241845 -0.707107 0.664463
vn 0.454519 -0.707107 0.541675
vn 0.612372 -0.707107 0.353553
vn 0.696364 -0.707107 0.122788
vn 0.696364 -0.707107 -0.122788
vn 0.612372 -0.707107 -0.353553
vn 0.454519 -0.707107 -0.541675
vn 0.241845 -0.707107 -0.664463
vn -1.50165e-008 -0.707107 -0.707107
vn -0.241845 -0.707107 -0.664463
vn -1.12624e-008 0.707107 -0.707107
vn -0.241845 0.707107 -0.664463
vn -0.454519 0.707107 -0.541675
vn -0.612372 0.707107 -0.353553
vn -0.696364 0.707107 -0.122788
vn -0.696364 0.707107 0.122788
vn -0.612372 0.707107 0.353553
vn -0.454519 0.707107 0.541675
vn -0.241845 0.707107 0.664463
vn 1.12624e-008 0.707107 0.707107
vn 0.241845 0.707107 0.664463
vn 0.454519 0.707107 0.541675
vn 0.612372 0.707107 0.353553
vn 0.696364 0.707107 0.122788
vn 0.696364 0.707107 -0.122788
vn 0.612372 0.707107 -0.353553
vn 0.454519 0.707107 -0.541675
vn 0.241845 0.707107 -0.664463
vt 0.597338 0.931936
vt 0.639787 0.881346
vt 0.691357 0.91112
vt 0.66877 0.973177
vt 0.75 0.92146
vt 0.75 0.9875
vt 0.808643 0.91112
vt 0.83123 0.973177
vt 0.860213 0.881346
vt 0.902662 0.931936
vt 0.898489 0.83573
vt 0.955681 0.86875
vt 0.918855 0.779774
vt 0.983892 0.791241
vt 0.918855 0.720226
vt 0.983892 0.708759
vt 0.898489 0.66427
vt 0.955681 0.63125
vt 0.860213 0.618654
vt 0.902662 0.568064
vt 0.808643 0.58888
vt 0.83123 0.526823
vt 0.75 0.57854
vt 0.75 0.5125
vt 0.691357 0.58888
vt 0.66877 0.526823
vt 0.639787 0.618654
vt 0.597338 0.568064
vt 0.601511 0.66427
vt 0.544319 0.63125
vt 0.581145 0.720226
vt 0.516108 0.708759
vt 0.581145 0.779774
vt 0.516108 0.791241
vt 0.601511 0.83573
vt 0.544319 0.86875
vt 0.171621 0.646584
vt 0.101511 0.66427
vt 0.139788 0.618654
vt 0.191357 0.58888
vt 0.161119 0.713616
vt 0.0811447 0.720226
vt 0.161119 0.786384
vt 0.0811447 0.779774
vt 0.171621 0.853416
vt 0.101511 0.83573
vt 0.191357 0.91112
vt 0.139788 0.881346
vt 0.25 0.640442
vt 0.25 0.57854
vt 0.25 0.711321
vt 0.25 0.788679
vt 0.25 0.859558
vt 0.25 0.92146
vt 0.308643 0.58888
vt 0.328379 0.646584
vt 0.338881 0.713616
vt 0.338881 0.786384
vt 0.328379 0.853416
vt 0.308643 0.91112
vt 0.360213 0.618654
vt 0.398489 0.66427
vt 0.418855 0.720226
vt 0.418855 0.779774
vt 0.398489 0.83573
vt 0.360213 0.881346
vt 0.944444 0.0125
vt 1 0.0125
vt 1 0.4875
vt 0.944444 0.4875
vt 0.888889 0.0125
vt 0.888889 0.4875
vt 0.833333 0.0125
vt 0.833333 0.4875
vt 0.777778 0.0125
vt 0.777778 0.4875
vt 0.722222 0.0125
vt 0.722222 0.4875
vt 0.666667 0.0125
vt 0.666667 0.4875
vt 0.611111 0.0125
vt 0.611111 0.4875
vt 0.555556 0.0125
vt 0.555556 0.4875
vt 0.5 0.0125
vt 0.5 0.4875
vt 0.444444 0.0125
vt 0.444444 0.4875
vt 0.388889 0.0125
vt 0.388889 0.4875
vt 0.333333 0.0125
vt 0.333333 0.4875
vt 0.277778 0.0125
vt 0.277778 0.4875
vt 0.222222 0.0125
vt 0.222222 0.4875
vt 0.166667 0.0125
vt 0.166667 0.4875
vt 0.111111 0.0125
vt 0.111111 0.4875
vt 0.0555556 0.0125
vt 0.0555556 0.4875
vt 0 0.0125
vt 0 0.4875
vt 0.0973379 0.568064
vt 0.16877 0.526823
vt 0.25 0.5125
vt 0.33123 0.526823
vt 0.402662 0.568064
vt 0.455681 0.63125
vt 0.483892 0.708759
vt 0.483892 0.791241
vt 0.455681 0.86875
vt 0.402662 0.931936
vt 0.33123 0.973177
vt 0.25 0.9875
vt 0.16877 0.973177
vt 0.0973379 0.931936
vt 0.044319 0.86875
vt 0.0161082 0.791241
vt 0.0161082 0.708759
vt 0.044319 0.63125
vt 0.671621 0.853416
vt 0.661119 0.786384
vt 0.661119 0.713616
vt 0.671621 0.646584
vt 0.75 0.859558
vt 0.75 0.788679
vt 0.75 0.711321
vt 0.75 0.640442
vt 0.828379 0.853416
vt 0.838881 0.786384
vt 0.838881 0.713616
vt 0.828379 0.646584
vt 0.111111 -0.0125
vt 0.166667 -0.0125
vt 0.222222 -0.0125
vt 0.277778 -0.0125
vt 0.333333 -0.0125
vt 0.388889 -0.0125
vt 0.444444 -0.0125
vt 0.5 -0.0125
vt 0.555556 -0.0125
vt 0.611111 -0.0125
vt 0.666667 -0.0125
vt 0.722222 -0.0125
vt 0.777778 -0.0125
vt 0.833333 -0.0125
vt 0.888889 -0.0125
vt 0.944444 -0.0125
vt 1 -0.0125
vt 0 -0.0125
vt 0.0555556 -0.0125
vt 0.75 1.0125
vt 0.66022 0.996669
vt 0.581268 0.951087
vt 0.522668 0.88125
vt 0.491488 0.795583
vt 0.491488 0.704417
vt 0.522668 0.61875
vt 0.581268 0.548913
vt 0.66022 0.503331
vt 0.75 0.4875
vt 0.83978 0.503331
vt 0.918732 0.548913
vt 0.977332 0.61875
vt 1.00851 0.704417
vt 1.00851 0.795583
vt 0.977332 0.88125
vt 0.918732 0.951087
vt 0.83978 0.996669
usemtl Default
f 102/1/1 31/2/1 48/3/1 100/4/1
f 48/3/1 47/5/1 97/6/1 100/4/1
f 97/6/1 47/5/1 46/7/1 132/8/1
f 46/7/1 45/9/1 130/10/1 132/8/1
f 130/10/1 45/9/1 44/11/1 128/12/1
f 44/11/1 43/13/1 126/14/1 128/12/1
f 126/14/1 43/13/1 42/15/1 124/16/1
f 124/16/1 42/15/1 41/17/1 122/18/1
f 41/17/1 40/19/1 120/20/1 122/18/1
f 120/20/1 40/19/1 39/21/1 118/22/1
f 39/21/1 38/23/1 116/24/1 118/22/1
f 116/24/1 38/23/1 37/25/1 114/26/1
f 37/25/1 36/27/1 112/28/1 114/26/1
f 112/28/1 36/27/1 35/29/1 110/30/1
f 35/29/1 34/31/1 108/32/1 110/30/1
f 108/32/1 34/31/1 33/33/1 106/34/1
f 106/34/1 33/33/1 32/35/1 104/36/1
f 32/35/1 31/2/1 102/1/1 104/36/1
f 19/37/2 2/38/2 1/39/2 18/40/2
f 20/41/2 3/42/2 2/38/2 19/37/2
f 20/41/2 21/43/2 4/44/2 3/42/2
f 21/43/2 22/45/2 5/46/2 4/44/2
f 22/45/2 7/47/2 6/48/2 5/46/2
f 23/49/2 19/37/2 18/40/2 17/50/2
f 24/51/2 20/41/2 19/37/2 23/49/2
f 24/51/2 25/52/2 21/43/2 20/41/2
f 25/52/2 26/53/2 22/45/2 21/43/2
f 26/53/2 8/54/2 7/47/2 22/45/2
f 23/49/2 17/50/2 16/55/2 27/56/2
f 24/51/2 23/49/2 27/56/2 28/57/2
f 25/52/2 24/51/2 28/57/2 29/58/2
f 25/52/2 29/58/2 30/59/2 26/53/2
f 26/53/2 30/59/2 9/60/2 8/54/2
f 27/56/2 16/55/2 15/61/2 14/62/2
f 28/57/2 27/56/2 14/62/2 13/63/2
f 29/58/2 28/57/2 13/63/2 12/64/2
f 29/58/2 12/64/2 11/65/2 30/59/2
f 30/59/2 11/65/2 10/66/2 9/60/2
f 96/67/3 62/68/4 98/69/4 131/70/3
f 94/71/5 96/67/3 131/70/3 129/72/5
f 92/73/6 94/71/5 129/72/5 127/74/6
f 90/75/7 92/73/6 127/74/6 125/76/7
f 88/77/8 90/75/7 125/76/7 123/78/8
f 86/79/9 88/77/8 123/78/8 121/80/9
f 84/81/10 86/79/9 121/80/9 119/82/10
f 82/83/11 84/81/10 119/82/10 117/84/11
f 80/85/12 82/83/11 117/84/11 115/86/12
f 78/87/13 80/85/12 115/86/12 113/88/13
f 76/89/14 78/87/13 113/88/13 111/90/14
f 74/91/15 76/89/14 111/90/14 109/92/15
f 72/93/16 74/91/15 109/92/15 107/94/16
f 70/95/17 72/93/16 107/94/16 105/96/17
f 68/97/18 70/95/17 105/96/17 103/98/18
f 65/99/19 68/97/18 103/98/18 101/100/19
f 64/101/20 65/99/19 101/100/19 99/102/20
f 62/103/4 64/101/20 99/102/20 98/104/4
f 18/40/2 1/39/2 66/105/2 63/106/2
f 61/107/2 17/50/2 18/40/2 63/106/2
f 16/55/2 17/50/2 61/107/2 95/108/2
f 93/109/2 15/61/2 16/55/2 95/108/2
f 14/62/2 15/61/2 93/109/2 91/110/2
f 89/111/2 13/63/2 14/62/2 91/110/2
f 12/64/2 13/63/2 89/111/2 87/112/2
f 11/65/2 12/64/2 87/112/2 85/113/2
f 83/114/2 10/66/2 11/65/2 85/113/2
f 9/60/2 10/66/2 83/114/2 81/115/2
f 79/116/2 8/54/2 9/60/2 81/115/2
f 7/47/2 8/54/2 79/116/2 77/117/2
f 75/118/2 6/48/2 7/47/2 77/117/2
f 5/46/2 6/48/2 75/118/2 73/119/2
f 71/120/2 4/44/2 5/46/2 73/119/2
f 3/42/2 4/44/2 71/120/2 69/121/2
f 2/38/2 3/42/2 69/121/2 67/122/2
f 66/105/2 1/39/2 2/38/2 67/122/2
f 49/123/1 48/3/1 31/2/1 32/35/1
f 50/124/1 49/123/1 32/35/1 33/33/1
f 50/124/1 33/33/1 34/31/1 51/125/1
f 51/125/1 34/31/1 35/29/1 52/126/1
f 52/126/1 35/29/1 36/27/1 37/25/1
f 53/127/1 47/5/1 48/3/1 49/123/1
f 54/128/1 53/127/1 49/123/1 50/124/1
f 54/128/1 50/124/1 51/125/1 55/129/1
f 55/129/1 51/125/1 52/126/1 56/130/1
f 56/130/1 52/126/1 37/25/1 38/23/1
f 53/127/1 57/131/1 46/7/1 47/5/1
f 54/128/1 58/132/1 57/131/1 53/127/1
f 54/128/1 55/129/1 59/133/1 58/132/1
f 55/129/1 56/130/1 60/134/1 59/133/1
f 56/130/1 38/23/1 39/21/1 60/134/1
f 57/131/1 44/11/1 45/9/1 46/7/1
f 58/132/1 43/13/1 44/11/1 57/131/1
f 58/132/1 59/133/1 42/15/1 43/13/1
f 59/133/1 60/134/1 41/17/1 42/15/1
f 60/134/1 39/21/1 40/19/1 41/17/1
f 66/135/21 67/136/22 68/97/22 65/99/21
f 67/136/22 69/137/23 70/95/23 68/97/22
f 69/137/23 71/138/24 72/93/24 70/95/23
f 71/138/24 73/139/25 74/91/25 72/93/24
f 73/139/25 75/140/26 76/89/26 74/91/25
f 75/140/26 77/141/27 78/87/27 76/89/26
f 77/141/27 79/142/28 80/85/28 78/87/27
f 79/142/28 81/143/29 82/83/29 80/85/28
f 81/143/29 83/144/30 84/81/30 82/83/29
f 83/144/30 85/145/31 86/79/31 84/81/30
f 85/145/31 87/146/32 88/77/32 86/79/31
f 87/146/32 89/147/33 90/75/33 88/77/32
f 89/147/33 91/148/34 92/73/34 90/75/33
f 91/148/34 93/149/35 94/71/35 92/73/34
f 93/149/35 95/150/36 96/67/36 94/71/35
f 95/150/36 61/151/37 62/68/37 96/67/36
f 61/152/37 63/153/38 64/101/38 62/103/37
f 63/153/38 66/135/21 65/99/21 64/101/38
f 98/154/39 99/155/40 100/4/40 97/6/39
f 99/155/40 101/156/41 102/1/41 100/4/40
f 101/156/41 103/157/42 104/36/42 102/1/41
f 103/157/42 105/158/43 106/34/43 104/36/42
f 105/158/43 107/159/44 108/32/44 106/34/43
f 107/159/44 109/160/45 110/30/45 108/32/44
f 109/160/45 111/161/46 112/28/46 110/30/45
f 111/161/46 113/162/47 114/26/47 112/28/46
f 113/162/47 115/163/48 116/24/48 114/26/47
f 115/163/48 117/164/49 118/22/49 116/24/48
f 117/164/49 119/165/50 120/20/50 118/22/49
f 119/165/50 121/166/51 122/18/51 120/20/50
f 121/166/51 123/167/52 124/16/52 122/18/51
f 123/167/52 125/168/53 126/14/53 124/16/52
f 125/168/53 127/169/54 128/12/54 126/14/53
f 127/169/54 129/170/55 130/10/55 128/12/54
f 129/170/55 131/171/56 132/8/56 130/10/55
f 131/171/56 98/154/39 97/6/39 132/8/56
