# OBJ written from C:\Users\Joe\Desktop\Tabletop Simulator\merchant_of_venus\assets\_models\players.obj
mtllib players.mtl
# Units	inches

g players
v 25 -1 -31
v 49 -1 -31
v 25 0.875 -31
v 25.125 1 -31.125
v 49 0.875 -31
v 48.875 1 -31.125
v 26 0 -47
v 25 -0.0623783 -46.002
v 49 -0.0623783 -46.002
v 48 0 -47
v 25 0.875 -46
v 26 0.875 -47
v 26.125 1 -46.875
v 25.125 1 -45.875
v 48 0.875 -47
v 49 0.875 -46
v 48.875 1 -45.875
v 47.875 1 -46.875
v 0.334 -1 -31
v 24.334 -1 -31
v 0.334 0.875 -31
v 0.459001 1 -31.125
v 24.334 0.875 -31
v 24.209 1 -31.125
v 1.334 0 -47
v 0.334 -0.0623783 -46.002
v 24.334 -0.0623783 -46.002
v 23.334 0 -47
v 0.334 0.875 -46
v 1.334 0.875 -47
v 1.459 1 -46.875
v 0.459001 1 -45.875
v 23.334 0.875 -47
v 24.334 0.875 -46
v 24.209 1 -45.875
v 23.209 1 -46.875
v -24.332 -1 -31
v -0.331998 -1 -31
v -24.332 0.875 -31
v -24.207 1 -31.125
v -0.331998 0.875 -31
v -0.456999 1 -31.125
v -23.332 0 -47
v -24.332 -0.0623783 -46.002
v -0.331998 -0.0623783 -46.002
v -1.332 0 -47
v -24.332 0.875 -46
v -23.332 0.875 -47
v -23.207 1 -46.875
v -24.207 1 -45.875
v -1.332 0.875 -47
v -0.331998 0.875 -46
v -0.456999 1 -45.875
v -1.457 1 -46.875
v -48.998 -1 -31
v -24.998 -1 -31
v -48.998 0.875 -31
v -48.873 1 -31.125
v -24.998 0.875 -31
v -25.123 1 -31.125
v -47.998 0 -47
v -48.998 -0.0623783 -46.002
v -24.998 -0.0623783 -46.002
v -25.998 0 -47
v -48.998 0.875 -46
v -47.998 0.875 -47
v -47.873 1 -46.875
v -48.873 1 -45.875
v -25.998 0.875 -47
v -24.998 0.875 -46
v -25.123 1 -45.875
v -26.123 1 -46.875
vn 0.211324 0.788677 -0.577348
vn -0.211324 0.788677 -0.577348
vn 0.707105 0.707109 0
vn 0.577348 0.788677 -0.211324
vn -0.707105 0.707109 0
vn -0.577348 0.788677 -0.211324
vn -1 0 0
vn 0 0 1
vn 0 0 -1
vn 0 0.707109 0.707105
vn 1 0 0
vn 0.14637 0.9048 -0.399892
vn 0.399892 0.9048 -0.14637
vn 0.706462 0.00147058 -0.707749
vn -0.399892 0.9048 -0.14637
vn -0.109791 0.947614 -0.299955
vn -0.706463 0.00147058 -0.707748
vn -0.141996 0.97963 -0.141995
vn 0 1 0
vn 0.214185 0.953021 -0.214185
vn -0.214186 0.953021 -0.214185
vn 0 -0.998053 -0.0623783
vn -0.211324 0.788677 -0.577348
vn -0.577348 0.788677 -0.211324
vn -0.399892 0.9048 -0.14637
vn -0.109791 0.947614 -0.299955
vn -0.706462 0.00147058 -0.707749
vn -0.141996 0.97963 -0.141996
vn -0.214185 0.953021 -0.214185
vt 0.0102496 0.878558
vt 0.00835367 0.236019
vt 0.0134979 0.239707
vt 0.0153697 0.874845
vt 0.479418 0.906298
vt 0.0409597 0.909102
vt 0.0446511 0.903959
vt 0.474823 0.90209
vt 0.477351 0.205865
vt 0.472781 0.210097
vt 0.0426252 0.210447
vt 0.0389075 0.205323
vt 0.970346 0.025722
vt 0.970346 0.0463019
vt 0.790191 0.0463019
vt 0.790168 0.0360132
vt 0.311763 0.0468484
vt 0.0234679 0.047303
vt 0.023429 0.0267197
vt 0.311724 0.0262651
vt 0.773196 0.0367092
vt 0.773206 0.0463147
vt 0.508934 0.0465492
vt 0.508923 0.0369436
vt 0.491951 0.0362741
vt 0.491947 0.0465643
vt 0.529627 0.20619
vt 0.991771 0.874664
vt 0.962944 0.903728
vt 0.529627 0.903728
vt 0.962944 0.20619
vt 0.991771 0.235254
usemtl player
f 15/1/1 12/2/2 13/3/2 18/4/1
f 5/5/3 16/6/4 17/7/4 6/8/3
f 3/9/5 4/10/5 14/11/6 11/12/6
f 1/13/7 3/14/7 11/15/7 8/16/7
f 5/17/8 3/18/8 1/19/8 2/20/8
f 7/21/9 12/22/9 15/23/9 10/24/9
f 3/9/10 5/5/10 6/8/10 4/10/10
f 2/20/11 9/25/11 16/26/11 5/17/11
f 16/6/4 15/1/1 18/4/12 17/7/13
f 9/25/14 10/24/14 15/23/14 16/26/14
f 14/11/15 13/3/16 12/2/2 11/12/6
f 8/16/17 11/15/17 12/22/17 7/21/17
f 13/3/18 6/8/19 17/7/20 18/4/20
f 6/8/19 13/3/18 14/11/21 4/10/19
f 1/27/22 10/28/22 9/29/22 2/30/22
f 10/28/22 1/27/22 8/31/22 7/32/22
f 33/1/1 30/2/2 31/3/2 36/4/1
f 23/5/3 34/6/4 35/7/4 24/8/3
f 21/9/5 22/10/5 32/11/6 29/12/6
f 19/13/7 21/14/7 29/15/7 26/16/7
f 23/17/8 21/18/8 19/19/8 20/20/8
f 25/21/9 30/22/9 33/23/9 28/24/9
f 21/9/10 23/5/10 24/8/10 22/10/10
f 20/20/11 27/25/11 34/26/11 23/17/11
f 34/6/4 33/1/1 36/4/12 35/7/13
f 27/25/14 28/24/14 33/23/14 34/26/14
f 32/11/15 31/3/16 30/2/2 29/12/6
f 26/16/17 29/15/17 30/22/17 25/21/17
f 31/3/18 24/8/19 35/7/20 36/4/20
f 24/8/19 31/3/18 32/11/21 22/10/19
f 19/27/22 28/28/22 27/29/22 20/30/22
f 28/28/22 19/27/22 26/31/22 25/32/22
f 51/1/1 48/2/2 49/3/2 54/4/1
f 41/5/3 52/6/4 53/7/4 42/8/3
f 39/9/5 40/10/5 50/11/6 47/12/6
f 37/13/7 39/14/7 47/15/7 44/16/7
f 41/17/8 39/18/8 37/19/8 38/20/8
f 43/21/9 48/22/9 51/23/9 46/24/9
f 39/9/10 41/5/10 42/8/10 40/10/10
f 38/20/11 45/25/11 52/26/11 41/17/11
f 52/6/4 51/1/1 54/4/12 53/7/13
f 45/25/14 46/24/14 51/23/14 52/26/14
f 50/11/15 49/3/16 48/2/2 47/12/6
f 44/16/17 47/15/17 48/22/17 43/21/17
f 49/3/18 42/8/19 53/7/20 54/4/20
f 42/8/19 49/3/18 50/11/21 40/10/19
f 37/27/22 46/28/22 45/29/22 38/30/22
f 46/28/22 37/27/22 44/31/22 43/32/22
f 69/1/1 66/2/23 67/3/23 72/4/1
f 59/5/3 70/6/4 71/7/4 60/8/3
f 57/9/5 58/10/5 68/11/24 65/12/24
f 55/13/7 57/14/7 65/15/7 62/16/7
f 59/17/8 57/18/8 55/19/8 56/20/8
f 61/21/9 66/22/9 69/23/9 64/24/9
f 57/9/10 59/5/10 60/8/10 58/10/10
f 56/20/11 63/25/11 70/26/11 59/17/11
f 70/6/4 69/1/1 72/4/12 71/7/13
f 63/25/14 64/24/14 69/23/14 70/26/14
f 68/11/25 67/3/26 66/2/23 65/12/24
f 62/16/27 65/15/27 66/22/27 61/21/27
f 67/3/28 60/8/19 71/7/20 72/4/20
f 60/8/19 67/3/28 68/11/29 58/10/19
f 55/27/22 64/28/22 63/29/22 56/30/22
f 64/28/22 55/27/22 62/31/22 61/32/22
