# OBJ written from C:\Users\Joe\Desktop\Tabletop Simulator\merchant_of_venus\assets\cultures\culture_coffin_3.5x2.obj
mtllib culture_coffin_3.5x2.mtl
# Units	inches

g culture_coffin_3.5x2
v -1.5 0 -1
v -1.75 0 -0.75
v -1.75 0 0.75
v -1.5 0 1
v 1.5 0 -1
v 1.75 0 -0.75
v 1.75 0 0.75
v 1.5 0 1
v -1.5 0.75 1
v -1.39645 1 0.75
v -1.75 0.75 0.75
v -1.5 1 0.646447
v -1.75 0.75 -0.75
v -1.5 1 -0.646447
v -1.5 0.75 -1
v -1.39645 1 -0.75
v 1.75 0.75 0.75
v 1.5 1 0.646447
v 1.5 0.75 1
v 1.39645 1 0.75
v 1.75 0.75 -0.75
v 1.5 1 -0.646447
v 1.5 0.75 -1
v 1.39645 1 -0.75
v 1.74692 0.789109 -0.748726
v 1.74692 0.789109 0.748726
v 1.73777 0.827255 -0.744932
v 1.73777 0.827255 0.744932
v 1.72275 0.863498 -0.738714
v 1.72275 0.863498 0.738714
v 1.70226 0.896947 -0.730223
v 1.70226 0.896947 0.730223
v 1.67678 0.926777 -0.71967
v 1.67678 0.926777 0.71967
v 1.64695 0.952255 -0.707314
v 1.64695 0.952255 0.707314
v 1.6135 0.972752 -0.693459
v 1.6135 0.972752 0.693459
v 1.57726 0.987765 -0.678447
v 1.57726 0.987765 0.678447
v 1.53911 0.996923 -0.662646
v 1.53911 0.996923 0.662646
v -1.49873 0.789109 -0.996923
v 1.49873 0.789109 -0.996923
v -1.49493 0.827255 -0.987765
v 1.49493 0.827255 -0.987765
v -1.48871 0.863498 -0.972752
v 1.48871 0.863498 -0.972752
v -1.48022 0.896947 -0.952255
v 1.48022 0.896947 -0.952255
v -1.46967 0.926777 -0.926777
v 1.46967 0.926777 -0.926777
v -1.45731 0.952255 -0.896947
v 1.45731 0.952255 -0.896947
v -1.44346 0.972752 -0.863498
v 1.44346 0.972752 -0.863498
v -1.42845 0.987765 -0.827255
v 1.42845 0.987765 -0.827255
v -1.41265 0.996923 -0.789109
v 1.41265 0.996923 -0.789109
v -1.53911 0.996923 -0.662646
v -1.57726 0.987765 -0.678447
v -1.6135 0.972752 -0.693459
v -1.64695 0.952255 -0.707314
v -1.67678 0.926777 -0.71967
v -1.70226 0.896947 -0.730223
v -1.72275 0.863498 -0.738714
v -1.73777 0.827255 -0.744932
v -1.74692 0.789109 -0.748726
v -1.53911 0.996923 0.662646
v -1.57726 0.987765 0.678447
v -1.6135 0.972752 0.693459
v -1.64695 0.952255 0.707314
v -1.67678 0.926777 0.71967
v -1.70226 0.896947 0.730223
v -1.72275 0.863498 0.738714
v -1.73777 0.827255 0.744932
v -1.74692 0.789109 0.748726
v -1.41265 0.996923 0.789109
v -1.42845 0.987765 0.827255
v -1.44346 0.972752 0.863498
v -1.45731 0.952255 0.896947
v -1.46967 0.926777 0.926777
v -1.48022 0.896947 0.952255
v -1.48871 0.863498 0.972752
v -1.49493 0.827255 0.987765
v -1.49873 0.789109 0.996923
v 1.41265 0.996923 0.789109
v 1.42845 0.987765 0.827255
v 1.44346 0.972752 0.863498
v 1.45731 0.952255 0.896947
v 1.46967 0.926777 0.926777
v 1.48022 0.896947 0.952255
v 1.48871 0.863498 0.972752
v 1.49493 0.827255 0.987765
v 1.49873 0.789109 0.996923
v 1.75 0.575 -0.75
v 1.75 0.575 0.75
v -1.5 0.575 -1
v 1.5 0.575 -1
v 1.5 0.575 1
v -1.5 0.575 1
v -1.75 0.575 0.75
v -1.75 0.575 -0.75
v 1.32448 1 -0.57448
v 1.32448 1 0.57448
v -1.32448 1 0.57448
v -1.32448 1 -0.57448
vn 0.707107 0 -0.707107
vn 0.707107 0 0.707107
vn -0.707107 0 -0.707107
vn -0.707107 0 0.707107
vn -1 0 0
vn 0 0 1
vn 0 0 -1
vn 1 0 0
vn 0.999229 0.0392598 0
vn 0.987688 0.156434 0
vn 0.951057 0.309016 0
vn 0.891006 0.453991 0
vn 0.837938 0.502772 0.21232
vn 0.837938 0.502773 -0.21232
vn 0.726219 0.618158 -0.30081
vn 0.726219 0.618157 0.30081
vn 0.626943 0.73451 -0.259688
vn 0.626943 0.73451 0.259688
vn 0.514901 0.830295 -0.213279
vn 0.514901 0.830295 0.213279
vn 0.393489 0.904766 -0.162988
vn 0.393489 0.904766 0.162988
vn 0.265627 0.957777 -0.110026
vn 0.265627 0.957777 0.110026
vn 0.133765 0.989463 -0.0554073
vn 0.133765 0.989463 0.0554073
vn 0.0335141 0.999342 -0.013882
vn 0.0335141 0.999342 0.013882
vn 0 0.0392598 -0.999229
vn 0 0.156435 -0.987688
vn 0 0.309017 -0.951057
vn 0 0.45399 -0.891007
vn 0.21232 0.502772 -0.837938
vn -0.21232 0.502772 -0.837938
vn -0.30081 0.618157 -0.72622
vn 0.30081 0.618157 -0.72622
vn -0.259688 0.73451 -0.626943
vn 0.259688 0.73451 -0.626943
vn -0.213279 0.830295 -0.514901
vn 0.213279 0.830295 -0.514901
vn -0.162989 0.904766 -0.393489
vn 0.162989 0.904766 -0.393489
vn -0.110026 0.957777 -0.265626
vn 0.110026 0.957777 -0.265626
vn -0.0554073 0.989463 -0.133765
vn 0.0554073 0.989463 -0.133765
vn -0.013882 0.999342 -0.0335141
vn 0.013882 0.999342 -0.0335141
vn 0.742644 0.502773 -0.442379
vn 0.442379 0.502773 -0.742644
vn 0.672498 0.309017 -0.672499
vn 0.630036 0.453991 -0.630037
vn 0.698401 0.156434 -0.698401
vn 0.706562 0.0392596 -0.706562
vn -0.133765 0.989463 -0.0554073
vn -0.0335141 0.999342 -0.013882
vn -0.265627 0.957777 -0.110026
vn -0.393489 0.904766 -0.162988
vn -0.514901 0.830295 -0.213279
vn -0.626943 0.73451 -0.259688
vn -0.726219 0.618157 -0.30081
vn -0.442379 0.502771 -0.742645
vn -0.742644 0.502772 -0.442379
vn -0.672499 0.309016 -0.672499
vn -0.630037 0.45399 -0.630037
vn -0.698401 0.156435 -0.698401
vn -0.706562 0.0392602 -0.706562
vn -0.133765 0.989463 0.0554073
vn -0.0335141 0.999342 0.013882
vn -0.265627 0.957777 0.110026
vn -0.393489 0.904766 0.162988
vn -0.514901 0.830295 0.213279
vn -0.626943 0.73451 0.259688
vn -0.726219 0.618158 0.30081
vn -0.837938 0.502772 -0.21232
vn -0.837938 0.502773 0.21232
vn -0.951057 0.309016 0
vn -0.891006 0.453991 0
vn -0.987688 0.156434 0
vn -0.999229 0.0392598 0
vn -0.0554073 0.989463 0.133765
vn -0.013882 0.999342 0.0335141
vn -0.110026 0.957777 0.265626
vn -0.162989 0.904766 0.393489
vn -0.213279 0.830295 0.514901
vn -0.259688 0.73451 0.626943
vn -0.30081 0.618157 0.72622
vn -0.742644 0.502773 0.442379
vn -0.442379 0.502773 0.742644
vn -0.672498 0.309017 0.672499
vn -0.630036 0.453991 0.630037
vn -0.698401 0.156434 0.698401
vn -0.706562 0.0392596 0.706562
vn 0.0554073 0.989463 0.133765
vn 0.013882 0.999342 0.0335141
vn 0.110026 0.957777 0.265626
vn 0.162989 0.904766 0.393489
vn 0.213279 0.830295 0.514901
vn 0.259688 0.73451 0.626943
vn 0.30081 0.618157 0.72622
vn -0.21232 0.502772 0.837938
vn 0.21232 0.502772 0.837938
vn 0 0.309017 0.951057
vn 0 0.45399 0.891007
vn 0 0.156435 0.987688
vn 0 0.0392598 0.999229
vn 0.442379 0.502771 0.742645
vn 0.742644 0.502772 0.442379
vn 0.672499 0.309016 0.672499
vn 0.630037 0.45399 0.630037
vn 0.698401 0.156435 0.698401
vn 0.706562 0.0392602 0.706562
vn 0 1 0
vn 0 -1 0
vt 0.89193 0.89542
vt 0.851124 0.936064
vt 0.784741 0.869981
vt 0.825547 0.829337
vt 0.851055 0.405832
vt 0.891874 0.446455
vt 0.825523 0.512557
vt 0.784705 0.471933
vt 0.155179 0.935647
vt 0.114514 0.894977
vt 0.18094 0.829124
vt 0.221604 0.869794
vt 0.221714 0.47195
vt 0.180913 0.512599
vt 0.114521 0.446525
vt 0.155322 0.405876
vt 0.165754 0.549052
vt 0.16576 0.792878
vt 0.0718945 0.79288
vt 0.0718886 0.549054
vt 0.258361 0.456833
vt 0.258359 0.363365
vt 0.748101 0.363357
vt 0.748103 0.456826
vt 0.258359 0.978566
vt 0.258359 0.885096
vt 0.748109 0.885094
vt 0.748108 0.978564
vt 0.840717 0.549046
vt 0.934586 0.549047
vt 0.934584 0.792881
vt 0.840715 0.79288
vt 0.812149 0.549046
vt 0.812147 0.79288
vt 0.805742 0.792673
vt 0.805745 0.549253
vt 0.799338 0.792056
vt 0.79934 0.54987
vt 0.792934 0.791045
vt 0.792936 0.55088
vt 0.78653 0.789665
vt 0.786532 0.55226
vt 0.780126 0.787949
vt 0.780127 0.553976
vt 0.773722 0.785941
vt 0.773722 0.555984
vt 0.767317 0.783688
vt 0.767318 0.558236
vt 0.760913 0.781248
vt 0.760914 0.560676
vt 0.754509 0.778679
vt 0.754509 0.563243
vt 0.748105 0.776045
vt 0.748105 0.565876
vt 0.748108 0.856647
vt 0.258359 0.856649
vt 0.258567 0.850272
vt 0.7479 0.85027
vt 0.259186 0.843895
vt 0.747281 0.843893
vt 0.260201 0.837518
vt 0.746265 0.837516
vt 0.261588 0.831141
vt 0.744879 0.831139
vt 0.26331 0.824763
vt 0.743156 0.824762
vt 0.265327 0.818386
vt 0.741139 0.818385
vt 0.267589 0.81201
vt 0.738877 0.812008
vt 0.27004 0.805632
vt 0.736425 0.805631
vt 0.272619 0.799255
vt 0.733846 0.799254
vt 0.275264 0.792878
vt 0.731201 0.792877
vt 0.754503 0.778691
vt 0.73386 0.799249
vt 0.736565 0.805574
vt 0.760854 0.781383
vt 0.73936 0.811809
vt 0.767116 0.784166
vt 0.773244 0.787082
vt 0.74229 0.81791
vt 0.745393 0.823839
vt 0.779199 0.790169
vt 0.784946 0.793465
vt 0.748704 0.829561
vt 0.790455 0.796997
vt 0.752254 0.835045
vt 0.795701 0.800791
vt 0.756065 0.840269
vt 0.800668 0.804863
vt 0.760156 0.845214
vt 0.805344 0.809225
vt 0.764537 0.849869
vt 0.251979 0.778679
vt 0.258367 0.776042
vt 0.27259 0.799247
vt 0.269871 0.805565
vt 0.245634 0.781359
vt 0.267063 0.81179
vt 0.239377 0.784129
vt 0.233253 0.78703
vt 0.264121 0.817881
vt 0.261008 0.823797
vt 0.227302 0.790103
vt 0.221557 0.793383
vt 0.257687 0.829506
vt 0.25413 0.834977
vt 0.216049 0.7969
vt 0.250311 0.840185
vt 0.210802 0.800678
vt 0.246213 0.845115
vt 0.205835 0.804735
vt 0.241826 0.849754
vt 0.201156 0.809082
vt 0.251963 0.778675
vt 0.251959 0.563249
vt 0.258363 0.565883
vt 0.245559 0.781244
vt 0.245554 0.560681
vt 0.239155 0.783684
vt 0.23915 0.558241
vt 0.232752 0.785937
vt 0.232746 0.555989
vt 0.226348 0.787945
vt 0.226342 0.553981
vt 0.219944 0.789661
vt 0.219938 0.552265
vt 0.21354 0.791042
vt 0.213534 0.550885
vt 0.207136 0.792053
vt 0.20713 0.549875
vt 0.200732 0.79267
vt 0.200726 0.549258
vt 0.194328 0.792877
vt 0.194322 0.549051
vt 0.251965 0.563237
vt 0.272607 0.542677
vt 0.275267 0.549049
vt 0.269901 0.536352
vt 0.245612 0.560546
vt 0.267103 0.530118
vt 0.239351 0.557763
vt 0.233222 0.554849
vt 0.264173 0.524016
vt 0.261069 0.518087
vt 0.227267 0.551761
vt 0.221519 0.548467
vt 0.257757 0.512366
vt 0.21601 0.544934
vt 0.254207 0.506882
vt 0.210763 0.541142
vt 0.250395 0.501659
vt 0.205796 0.53707
vt 0.246303 0.496714
vt 0.201119 0.532709
vt 0.24192 0.49206
vt 0.272622 0.542673
vt 0.733842 0.542665
vt 0.731197 0.549043
vt 0.270043 0.536295
vt 0.736421 0.536288
vt 0.267592 0.529918
vt 0.738871 0.529911
vt 0.26533 0.523542
vt 0.741133 0.523534
vt 0.263313 0.517165
vt 0.743151 0.517157
vt 0.26159 0.510788
vt 0.744874 0.51078
vt 0.260204 0.504411
vt 0.746259 0.504403
vt 0.259189 0.498034
vt 0.747274 0.498026
vt 0.25857 0.491657
vt 0.747893 0.491649
vt 0.258361 0.48528
vt 0.748102 0.485272
vt 0.754502 0.563228
vt 0.733855 0.542673
vt 0.736558 0.536348
vt 0.760854 0.560533
vt 0.739352 0.530114
vt 0.767114 0.557747
vt 0.773241 0.554829
vt 0.742279 0.524012
vt 0.74538 0.518083
vt 0.779194 0.551739
vt 0.784939 0.548441
vt 0.748688 0.512362
vt 0.752235 0.506876
vt 0.790446 0.544907
vt 0.756044 0.501652
vt 0.795691 0.541112
vt 0.760132 0.496707
vt 0.800656 0.537039
vt 0.764511 0.49205
vt 0.805329 0.532675
vt 0.719452 0.764346
vt 0.71945 0.577575
vt 0.287015 0.57758
vt 0.287015 0.764346
vt 0.258021 0.00816061
vt 0.258021 0.329827
vt 0.21748 0.289619
vt 0.21748 0.048369
vt 0.744517 0.00816081
vt 0.744516 0.329827
vt 0.785058 0.0483692
vt 0.785058 0.289619
usemtl Default
f 6/1/1 5/2/1 100/3/1 97/4/1
f 8/5/2 7/6/2 98/7/2 101/8/2
f 1/9/3 2/10/3 104/11/3 99/12/3
f 102/13/4 103/14/4 3/15/4 4/16/4
f 103/17/5 104/18/5 2/19/5 3/20/5
f 102/21/6 4/22/6 8/23/6 101/24/6
f 1/25/7 99/26/7 100/27/7 5/28/7
f 98/29/8 7/30/8 6/31/8 97/32/8
f 17/33/9 21/34/9 25/35/10 26/36/10
f 26/36/10 25/35/10 27/37/11 28/38/11
f 28/38/11 27/37/11 29/39/12 30/40/12
f 30/40/13 29/39/14 31/41/15 32/42/16
f 32/42/16 31/41/15 33/43/17 34/44/18
f 34/44/18 33/43/17 35/45/19 36/46/20
f 36/46/20 35/45/19 37/47/21 38/48/22
f 38/48/22 37/47/21 39/49/23 40/50/24
f 40/50/24 39/49/23 41/51/25 42/52/26
f 42/52/26 41/51/25 22/53/27 18/54/28
f 23/55/29 15/56/29 43/57/30 44/58/30
f 44/58/30 43/57/30 45/59/31 46/60/31
f 46/60/31 45/59/31 47/61/32 48/62/32
f 48/62/33 47/61/34 49/63/35 50/64/36
f 50/64/36 49/63/35 51/65/37 52/66/38
f 52/66/38 51/65/37 53/67/39 54/68/40
f 54/68/40 53/67/39 55/69/41 56/70/42
f 56/70/42 55/69/41 57/71/43 58/72/44
f 58/72/44 57/71/43 59/73/45 60/74/46
f 60/74/46 59/73/45 16/75/47 24/76/48
f 41/77/25 60/78/46 24/76/48 22/53/27
f 58/79/44 60/78/46 41/77/25 39/80/23
f 56/81/42 58/79/44 39/80/23 37/82/21
f 35/83/19 54/84/40 56/81/42 37/82/21
f 52/85/38 54/84/40 35/83/19 33/86/17
f 31/87/15 50/88/36 52/85/38 33/86/17
f 29/89/49 48/90/50 50/88/36 31/87/15
f 27/91/51 46/92/51 48/90/52 29/89/52
f 25/93/53 44/94/53 46/92/51 27/91/51
f 21/95/54 23/96/54 44/94/53 25/93/53
f 61/97/55 14/98/56 16/75/47 59/99/45
f 57/100/43 62/101/57 61/97/55 59/99/45
f 55/102/41 63/103/58 62/101/57 57/100/43
f 64/104/59 63/103/58 55/102/41 53/105/39
f 51/106/37 65/107/60 64/104/59 53/105/39
f 66/108/61 65/107/60 51/106/37 49/109/35
f 47/110/62 67/111/63 66/108/61 49/109/35
f 45/112/64 68/113/64 67/111/65 47/110/65
f 43/114/66 69/115/66 68/113/64 45/112/64
f 15/116/67 13/117/67 69/115/66 43/114/66
f 61/118/55 70/119/68 12/120/69 14/98/56
f 62/121/57 71/122/70 70/119/68 61/118/55
f 63/123/58 72/124/71 71/122/70 62/121/57
f 64/125/59 73/126/72 72/124/71 63/123/58
f 65/127/60 74/128/73 73/126/72 64/125/59
f 66/129/61 75/130/74 74/128/73 65/127/60
f 67/131/75 76/132/76 75/130/74 66/129/61
f 68/133/77 77/134/77 76/132/78 67/131/78
f 69/135/79 78/136/79 77/134/77 68/133/77
f 13/137/80 11/138/80 78/136/79 69/135/79
f 70/139/68 79/140/81 10/141/82 12/120/69
f 80/142/83 79/140/81 70/139/68 71/143/70
f 81/144/84 80/142/83 71/143/70 72/145/71
f 73/146/72 82/147/85 81/144/84 72/145/71
f 83/148/86 82/147/85 73/146/72 74/149/73
f 75/150/74 84/151/87 83/148/86 74/149/73
f 76/152/88 85/153/89 84/151/87 75/150/74
f 77/154/90 86/155/90 85/153/91 76/152/91
f 78/156/92 87/157/92 86/155/90 77/154/90
f 11/158/93 9/159/93 87/157/92 78/156/92
f 79/160/81 88/161/94 20/162/95 10/141/82
f 80/163/83 89/164/96 88/161/94 79/160/81
f 81/165/84 90/166/97 89/164/96 80/163/83
f 82/167/85 91/168/98 90/166/97 81/165/84
f 83/169/86 92/170/99 91/168/98 82/167/85
f 84/171/87 93/172/100 92/170/99 83/169/86
f 85/173/101 94/174/102 93/172/100 84/171/87
f 86/175/103 95/176/103 94/174/104 85/173/104
f 87/177/105 96/178/105 95/176/103 86/175/103
f 9/179/106 19/180/106 96/178/105 87/177/105
f 42/181/26 18/54/28 20/162/95 88/182/94
f 89/183/96 40/184/24 42/181/26 88/182/94
f 90/185/97 38/186/22 40/184/24 89/183/96
f 36/187/20 38/186/22 90/185/97 91/188/98
f 92/189/99 34/190/18 36/187/20 91/188/98
f 32/191/16 34/190/18 92/189/99 93/192/100
f 94/193/107 30/194/108 32/191/16 93/192/100
f 95/195/109 28/196/109 30/194/110 94/193/110
f 96/197/111 26/198/111 28/196/109 95/195/109
f 19/199/112 17/200/112 26/198/111 96/197/111
f 21/34/9 17/33/9 98/29/8 97/32/8
f 15/56/29 23/55/29 100/27/7 99/26/7
f 19/180/106 9/179/106 102/21/6 101/24/6
f 11/138/80 13/137/80 104/18/5 103/17/5
f 9/159/93 11/158/93 103/14/4 102/13/4
f 13/117/67 15/116/67 99/12/3 104/11/3
f 17/200/112 19/199/112 101/8/2 98/7/2
f 23/96/54 21/95/54 97/4/1 100/3/1
f 22/53/27 24/76/48 105/201/113
f 20/162/95 18/54/28 106/202/113
f 18/54/28 22/53/27 105/201/113 106/202/113
f 12/120/69 10/141/82 107/203/113
f 10/141/82 20/162/95 106/202/113 107/203/113
f 16/75/47 14/98/56 108/204/113
f 24/76/48 16/75/47 108/204/113 105/201/113
f 14/98/56 12/120/69 107/203/113 108/204/113
f 105/201/113 108/204/113 107/203/113 106/202/113
f 1/205/114 4/206/114 3/207/114 2/208/114
f 1/205/114 5/209/114 8/210/114 4/206/114
f 5/209/114 6/211/114 7/212/114 8/210/114
