# OBJ written from C:\Users\Joe\Desktop\Tabletop Simulator\merchant_of_venus\assets\_models\tablet_8x6.obj
mtllib tablet_8x6.mtl
# Units	inches

g tablet_8x6
v -3.75 0.075 3
v -3.73965 0.1 2.975
v -4 0.075 2.75
v -3.975 0.1 2.73965
v -4 0.075 -2.75
v -3.975 0.1 -2.73965
v -3.75 0.075 -3
v -3.73965 0.1 -2.975
v 4 0.075 2.75
v 3.975 0.1 2.73965
v 3.75 0.075 3
v 3.73965 0.1 2.975
v 4 0.075 -2.75
v 3.975 0.1 -2.73965
v 3.75 0.075 -3
v 3.73965 0.1 -2.975
v -3.75 0.025 -3
v -3.73965 0 -2.975
v -4 0.025 -2.75
v -3.975 0 -2.73965
v -4 0.025 2.75
v -3.975 0 2.73965
v -3.75 0.025 3
v -3.73965 0 2.975
v 3.75 0.025 -3
v 3.73965 0 -2.975
v 4 0.025 -2.75
v 3.975 0 -2.73965
v 4 0.025 2.75
v 3.975 0 2.73965
v 3.75 0.025 3
v 3.73965 0 2.975
vn 1 0 0
vn 0 0 -1
vn 0 0 1
vn -1 0 0
vn -0.707107 0 0.707107
vn -0.707107 0 -0.707107
vn 0.707107 0 0.707107
vn 0.707107 0 -0.707107
vn 0.626944 0.734509 0.259688
vn 0.626944 0.734509 -0.259688
vn 0.259688 0.734509 -0.626944
vn -0.259688 0.734509 -0.626944
vn -0.626944 0.734509 -0.259688
vn -0.626944 0.734509 0.259688
vn -0.259688 0.734509 0.626944
vn 0.259688 0.734509 0.626944
vn 0.259688 -0.734509 -0.626944
vn 0.626944 -0.734509 -0.259688
vn 0.626944 -0.734509 0.259688
vn 0.259688 -0.734509 0.626944
vn -0.626944 -0.734509 -0.259688
vn -0.259688 -0.734509 -0.626944
vn -0.259688 -0.734509 0.626944
vn -0.626944 -0.734509 0.259688
vn 0 -1 0
vn 0 1 0
vt 0.40721 0.549577
vt 0.0185235 0.551388
vt 0.0186209 0.547973
vt 0.407083 0.546172
vt 0.00832236 0.0168772
vt 0.00799812 0.538572
vt 0.00463298 0.538661
vt 0.00495729 0.0167925
vt 0.420137 0.0205598
vt 0.419974 0.536922
vt 0.416607 0.536837
vt 0.416669 0.0205591
vt 0.0174877 0.00788553
vt 0.0174538 0.00458196
vt 0.394413 0.0133912
vt 0.394332 0.016812
vt 0.413225 0.0137369
vt 0.413096 0.0172983
vt 0.019338 0.545544
vt 0.406343 0.543756
vt 0.0107102 0.0175982
vt 0.0103914 0.537847
vt 0.0181417 0.0102474
vt 0.393649 0.0192241
vt 0.412275 0.0197911
vt 0.414217 0.536115
vt 0.414217 0.0212792
vt 0.0191026 0.553804
vt 0.00225023 0.538065
vt 0.422359 0.536323
vt 0.40665 0.551992
vt 0.00257295 0.0173932
vt 0.0180599 0.00225661
vt 0.393844 0.0109484
vt 0.412539 0.0111969
vt 0.42259 0.0212814
vt 0.456799 0.472784
vt 0.472814 0.456796
vt 0.472814 0.860987
vt 0.456799 0.844999
vt 0.981732 0.456796
vt 0.981732 0.860987
vt 0.997746 0.472784
vt 0.997746 0.844999
vt 0.456799 0.0182383
vt 0.472814 0.00225023
vt 0.472814 0.406442
vt 0.456799 0.390454
vt 0.981732 0.00225023
vt 0.981732 0.406442
vt 0.997746 0.0182383
vt 0.997746 0.390454
usemtl edges
f 29/1/1 27/2/1 13/3/1 9/4/1
f 7/5/2 15/6/2 25/7/2 17/8/2
f 23/9/3 31/10/3 11/11/3 1/12/3
f 5/13/4 19/14/4 21/15/4 3/16/4
f 3/16/5 21/15/5 23/17/5 1/18/5
f 19/14/6 5/13/6 7/5/6 17/8/6
f 11/11/7 31/10/7 29/1/7 9/4/7
f 25/7/8 15/6/8 13/3/8 27/2/8
f 9/4/9 13/3/10 14/19/10 10/20/9
f 15/6/11 7/5/12 8/21/12 16/22/11
f 13/3/10 15/6/11 16/22/11 14/19/10
f 7/5/12 5/13/13 6/23/13 8/21/12
f 5/13/13 3/16/14 4/24/14 6/23/13
f 3/16/14 1/18/15 2/25/15 4/24/14
f 1/12/15 11/11/16 12/26/16 2/27/15
f 11/11/16 9/4/9 10/20/9 12/26/16
f 25/7/17 27/2/18 28/28/18 26/29/17
f 29/1/19 31/10/20 32/30/20 30/31/19
f 19/14/21 17/8/22 18/32/22 20/33/21
f 23/17/23 21/15/24 22/34/24 24/35/23
f 31/10/20 23/9/23 24/36/23 32/30/20
f 21/15/24 19/14/21 20/33/21 22/34/24
f 17/8/22 25/7/17 26/29/17 18/32/22
f 27/2/18 29/1/19 30/31/19 28/28/18
usemtl UI
f 20/37/25 18/38/25 24/39/25 22/40/25
f 18/38/25 26/41/25 32/42/25 24/39/25
f 26/41/25 28/43/25 30/44/25 32/42/25
f 4/45/26 2/46/26 8/47/26 6/48/26
f 2/46/26 12/49/26 16/50/26 8/47/26
f 12/49/26 10/51/26 14/52/26 16/50/26
